<svg width="512" height="512" viewBox="0 0 512 512" fill="none" xmlns="http://www.w3.org/2000/svg">
    <path
        d="M370.895 0C393.958 9.81964e-05 412.654 18.6966 412.655 41.7598V99.3311H468.796C492.655 99.3311 511.996 118.672 511.996 142.53V195.134C511.996 218.197 493.3 236.894 470.237 236.894H412.655V236.915H275.104V43.2002C275.104 19.3416 294.445 9.49524e-05 318.304 0H370.895Z"
        fill="#11D6D1" />
    <path
        d="M141.102 0C118.038 -1.00822e-06 99.342 18.6965 99.3418 41.7598V99.3311H43.1992C19.3408 99.3312 0.000178372 118.672 0 142.53V195.134C0 218.197 18.6964 236.894 41.7598 236.894H99.3418V236.915H236.892V43.2002C236.892 19.3416 217.551 0.000247681 193.692 0H141.102Z"
        fill="#11D6D1" />
    <path
        d="M370.895 511.992C393.958 511.992 412.655 493.296 412.655 470.232V412.662H468.796C492.655 412.662 511.996 393.321 511.996 369.462V316.858C511.996 293.795 493.3 275.099 470.237 275.099H412.655V275.078H275.104V468.792C275.104 492.651 294.445 511.992 318.304 511.992H370.895Z"
        fill="#11D6D1" />
    <path
        d="M141.102 511.992C118.038 511.992 99.3418 493.296 99.3418 470.232V412.662H43.1992C19.3406 412.662 0 393.321 0 369.462V316.858C0.000107402 293.795 18.6964 275.099 41.7598 275.099H99.3418V275.078H236.892V468.792C236.892 492.651 217.551 511.992 193.692 511.992H141.102Z"
        fill="#11D6D1" />
    <path d="M274.958 237.011L426.66 85.2949" stroke="black" stroke-opacity="0.1"
        stroke-width="1.44" />
    <path d="M426.669 426.646L274.967 274.93" stroke="black" stroke-opacity="0.1"
        stroke-width="1.44" />
    <path d="M237.034 237.011L85.3319 85.2949" stroke="black" stroke-opacity="0.1"
        stroke-width="1.44" />
    <path d="M85.3359 426.646L237.038 274.93" stroke="black" stroke-opacity="0.1"
        stroke-width="1.44" />
</svg>